<?xml version="1.0" encoding="UTF-8" standalone="no"?>
<svg
   xmlns:dc="http://purl.org/dc/elements/1.1/"
   xmlns:cc="http://creativecommons.org/ns#"
   xmlns:rdf="http://www.w3.org/1999/02/22-rdf-syntax-ns#"
   xmlns:svg="http://www.w3.org/2000/svg"
   xmlns="http://www.w3.org/2000/svg"
   version="1.1"
   id="svg2"
   viewBox="0 0 215.88415 219.93865"
   width="60.927303mm"
   height="62.071575mm">
  <defs
     id="defs8" />
  <metadata
     id="metadata4">
    <rdf:RDF>
      <cc:Work
         rdf:about="">
        <dc:format>image/svg+xml</dc:format>
        <dc:type
           rdf:resource="http://purl.org/dc/dcmitype/StillImage" />
        <dc:title></dc:title>
      </cc:Work>
    </rdf:RDF>
  </metadata>
  <g
     id="g3476"
     transform="matrix(0.6790393,0,0,0.6790393,393.24513,540.91313)">
    <g
       id="g3254"
       transform="translate(64.292225,74.443629)">
      <path
         id="path3206"
         d="m -544.86067,-555.99832 c -26.27922,-16.02337 -38.07637,-55.7327 -29.05482,-97.79876 6.20134,-28.91588 22.81319,-73.36384 27.41877,-73.36384 1.95809,0 4.58076,12.71435 5.82814,28.25412 2.81466,35.06468 14.67087,58.92674 46.45895,93.50422 13.4733,14.65557 24.4969,29.70124 24.4969,33.43482 0,23.53626 -46.52346,33.42281 -75.14794,15.96944 z m -89.51078,-117.64117 c -12.35199,-13.64879 -11.96579,-57.19022 0.66136,-74.56405 15.89833,-21.87469 47.91069,-34.50713 92.89617,-36.65792 21.78264,-1.04144 39.5972,-0.12728 39.58793,2.03146 -0.009,2.15874 -9.46276,7.81036 -21.00775,12.55915 -27.14596,11.16593 -50.98032,35.29302 -66.79336,67.61372 -19.73161,40.32995 -29.46811,46.56071 -45.34435,29.01764 z m 196.14934,-100.77199 c -20.99252,-21.65879 -54.73134,-37.18574 -88.78336,-40.859 -32.74743,-3.53253 -40.99742,-10.20665 -33.35375,-26.98268 5.92414,-13.00208 36.87391,-28.65401 56.90035,-28.77566 29.31134,-0.17807 60.62605,33.10946 76.71461,81.54756 9.97113,30.02025 6.9092,34.04039 -11.47785,15.06978 z"
         style="fill:#2e9840;fill-opacity:1" />
      <path
         id="path3206-3"
         d="m -410.695,-666.12776 c 0,-1.43852 5.52898,-13.17821 12.28661,-26.08821 12.49302,-23.8671 14.03638,-42.90946 9.19589,-113.46242 -1.09727,-15.99334 -0.0324,-18.16789 9.56055,-19.52376 15.98808,-2.25975 31.32971,7.86431 43.57133,28.75304 18.17123,31.00688 13.36639,54.82586 -17.5073,86.78892 -18.6126,19.26933 -57.10708,48.61346 -57.10708,43.53243 z"
         style="fill:#b0d235;fill-opacity:1" />
    </g>
    <flowRoot
       xml:space="preserve"
       id="flowRoot3258"
       style="font-style:normal;font-weight:normal;font-size:12px;line-height:125%;font-family:Sans;letter-spacing:0px;word-spacing:0px;fill:#000000;fill-opacity:1;stroke:none;stroke-width:1px;stroke-linecap:butt;stroke-linejoin:miter;stroke-opacity:1"><flowRegion
         id="flowRegion3260"><rect
           id="rect3262"
           width="306.7475"
           height="111.4401"
           x="321.68277"
           y="96.504829" /></flowRegion><flowPara
         id="flowPara3264" /></flowRoot>  </g>
</svg>
